<?xml version="1.0" standalone="no"?><svg xmlns="http://www.w3.org/2000/svg" viewBox="0 0 1440 320"><path fill="#a2d9ff" fill-opacity="1" d="M0,192L26.7,181.3C53.3,171,107,149,160,165.3C213.3,181,267,235,320,240C373.3,245,427,203,480,208C533.3,213,587,267,640,282.7C693.3,299,747,277,800,256C853.3,235,907,213,960,192C1013.3,171,1067,149,1120,165.3C1173.3,181,1227,235,1280,266.7C1333.3,299,1387,309,1413,314.7L1440,320L1440,320L1413.3,320C1386.7,320,1333,320,1280,320C1226.7,320,1173,320,1120,320C1066.7,320,1013,320,960,320C906.7,320,853,320,800,320C746.7,320,693,320,640,320C586.7,320,533,320,480,320C426.7,320,373,320,320,320C266.7,320,213,320,160,320C106.7,320,53,320,27,320L0,320Z"></path></svg>